<?xml version="1.0" encoding="UTF-8" standalone="no"?>
<svg
   xmlns:oryx="http://www.b3mn.org/oryx"
   xmlns:dc="http://purl.org/dc/elements/1.1/"
   xmlns:cc="http://creativecommons.org/ns#"
   xmlns:rdf="http://www.w3.org/1999/02/22-rdf-syntax-ns#"
   xmlns:svg="http://www.w3.org/2000/svg"
   xmlns="http://www.w3.org/2000/svg"
   xmlns:sodipodi="http://sodipodi.sourceforge.net/DTD/sodipodi-0.dtd"
   xmlns:inkscape="http://www.inkscape.org/namespaces/inkscape"
   width="102"
   height="82"
   version="1.0">
  <defs></defs>
  <oryx:magnets>
    <oryx:magnet oryx:cx="1" oryx:cy="20" oryx:anchors="left"/>
    <oryx:magnet oryx:cx="1" oryx:cy="40" oryx:anchors="left"/>
    <oryx:magnet oryx:cx="1" oryx:cy="60" oryx:anchors="left"/>
    <oryx:magnet oryx:cx="25" oryx:cy="79" oryx:anchors="bottom"/>
    <oryx:magnet oryx:cx="50" oryx:cy="79" oryx:anchors="bottom"/>
    <oryx:magnet oryx:cx="75" oryx:cy="79" oryx:anchors="bottom"/>
    <oryx:magnet oryx:cx="99" oryx:cy="20" oryx:anchors="right"/>
    <oryx:magnet oryx:cx="99" oryx:cy="40" oryx:anchors="right"/>
    <oryx:magnet oryx:cx="99" oryx:cy="60" oryx:anchors="right"/>
    <oryx:magnet oryx:cx="25" oryx:cy="1" oryx:anchors="top"/>
    <oryx:magnet oryx:cx="50" oryx:cy="1" oryx:anchors="top"/>
    <oryx:magnet oryx:cx="75" oryx:cy="1" oryx:anchors="top"/>
    <oryx:magnet oryx:cx="50" oryx:cy="40" oryx:default="yes"/>
  </oryx:magnets>
  <g
     pointer-events="fill"
     oryx:minimumSize="50 40"
     id="g3565">
    <defs
       id="defs3567">
      <radialGradient
         id="background"
         cx="10%"
         cy="10%"
         r="100%"
         fx="10%"
         fy="10%">
        <stop
           offset="0%"
           stop-color="#ffffff"
           stop-opacity="1"
           id="stop3570" />
        <stop
           id="fill_el"
           offset="100%"
           stop-color="#ffffcc"
           stop-opacity="1" />
      </radialGradient>
    </defs>
    <rect
       id="text_frame"
       oryx:anchors="bottom top right left"
       x="1"
       y="1"
       width="94"
       height="79"
       rx="10"
       ry="10"
       stroke-width="0"
       stroke="none"
       fill="none" />
    <rect
       id="bg_frame"
       oryx:resize="vertical horizontal"
       x="0"
       y="0"
       width="100"
       height="80"
       rx="10"
       ry="10"
       stroke-width="1"
       stroke="#bbbbbb"
       fill="#f9f9f9" />
    <text
       font-size="12"
       id="text_name"
       x="50"
       y="40"
       oryx:align="middle center"
       oryx:fittoelem="text_frame"
       stroke="#373e48" />
   <g
     transform="matrix(0.45438294,0,0,0.45438294,3.1590313,3.023305)"
     id="data">
    <path
       oryx:anchors="top left"
       inkscape:connector-curvature="0"
       style="fill:#010002"
       d="M 16,0 C 9.256,0 2,2.033 2,6.5 l 0,19 c 0,4.465 7.256,6.5 14,6.5 6.743,0 14,-2.035 14,-6.5 l 0,-19 C 30,2.033 22.742,0 16,0 Z M 28,25.5 C 28,27.984 22.627,30 16,30 9.372,30 4,27.984 4,25.5 L 4,21.764 C 6.066,23.893 11.05,25 16,25 c 4.95,0 9.934,-1.107 12,-3.236 l 0,3.736 z m 0,-6 -0.004,0 C 27.996,19.51 28,19.521 28,19.531 28,22 22.627,24 16,24 9.373,24 4,22 4,19.531 4,19.521 4.004,19.51 4.004,19.5 L 4,19.5 4,15.764 C 6.066,17.893 11.05,19 16,19 c 4.95,0 9.934,-1.107 12,-3.236 l 0,3.736 z m 0,-6 -0.004,0 C 27.996,13.51 28,13.521 28,13.531 28,16 22.627,18 16,18 9.373,18 4,16 4,13.531 4,13.521 4.004,13.51 4.004,13.5 L 4,13.5 4,10.064 C 6.621,12.061 11.425,13 16,13 c 4.575,0 9.379,-0.939 12,-2.936 L 28,13.5 Z M 16,11 C 9.372,11 4,8.984 4,6.5 4,4.014 9.372,2 16,2 22.627,2 28,4.014 28,6.5 28,8.984 22.627,11 16,11 Z"
       id="path6" />
    <circle
       oryx:anchors="top left"
       style="fill:#010002"
       cx="25"
       cy="26"
       r="1"
       id="circle8" />
    <circle
       oryx:anchors="top left"
       style="fill:#010002"
       cx="25"
       cy="20"
       r="1"
       id="circle10" />
    <circle
       oryx:anchors="top left"
       style="fill:#010002"
       cx="25"
       cy="14"
       r="1"
       id="circle12" />
  </g>
  <path
     oryx:anchors="top left"
     style="fill:none;fill-rule:evenodd;stroke:#000000;stroke-width:1px;stroke-linecap:butt;stroke-linejoin:miter;stroke-opacity:1"
     d="m 28.393935,9.9233051 -3.199153,-3.061017 0,2.161017 -7,0 0,1.7999999 7,0 0,2.20636 z"
     id="path3653"
     inkscape:connector-curvature="0"
     sodipodi:nodetypes="cccccccc" />

    <!-- <g id="parallel">
        <path oryx:anchors="bottom" fill="none" stroke="#bbbbbb" d="M46 70 v8 M50 70 v8 M54 70 v8" stroke-width="2" />
    </g>
     
    <g id="sequential">
        <path oryx:anchors="bottom" fill="none" stroke="#bbbbbb" stroke-width="2" d="M46,76h10M46,72h10 M46,68h10"/>
    </g>
    <g id="compensation">
        <path oryx:anchors="bottom" fill="none" stroke="#bbbbbb" d="M 62 74 L 66 70 L 66 78 L 62 74 L 62 70 L 58 74 L 62 78 L 62 74" stroke-width="1" />
    </g> -->
  </g>
</svg>
